<svg fill="none" xmlns="http://www.w3.org/2000/svg">
<symbol id="big-floppy"> 
<rect x="0.5" y="0.5" width="3" height="3" fill="inherit"/>
<rect x="0.5" y="3.5" width="3" height="3" fill="inherit"/>
<rect x="0.5" y="6.5" width="3" height="3" fill="inherit"/>
<rect x="0.5" y="9.5" width="3" height="3" fill="inherit"/>
<rect x="0.5" y="12.5" width="3" height="3" fill="inherit"/>
<rect x="0.5" y="15.5" width="3" height="3" fill="inherit"/>
<rect x="0.5" y="18.5" width="3" height="3" fill="inherit"/>
<rect x="0.5" y="21.5" width="3" height="3" fill="inherit"/>
<rect x="0.5" y="24.5" width="3" height="3" fill="inherit"/>
<rect x="0.5" y="27.5" width="3" height="3" fill="inherit"/>
<rect x="0.5" y="30.5" width="3" height="3" fill="inherit"/>
<rect x="0.5" y="33.5" width="3" height="3" fill="inherit"/>
<rect x="0.5" y="36.5" width="3" height="3" fill="inherit"/>
<rect x="33.5" y="0.5" width="3" height="3" transform="rotate(90 33.5 0.5)" fill="inherit"/>
<rect x="30.5" y="0.5" width="3" height="3" transform="rotate(90 30.5 0.5)" fill="inherit"/>
<rect x="27.5" y="0.5" width="3" height="3" transform="rotate(90 27.5 0.5)" fill="inherit"/>
<rect x="24.5" y="0.5" width="3" height="3" transform="rotate(90 24.5 0.5)" fill="inherit"/>
<rect x="21.5" y="0.5" width="3" height="3" transform="rotate(90 21.5 0.5)" fill="inherit"/>
<rect x="18.5" y="0.5" width="3" height="3" transform="rotate(90 18.5 0.5)" fill="inherit"/>
<rect x="15.5" y="0.5" width="3" height="3" transform="rotate(90 15.5 0.5)" fill="inherit"/>
<rect x="12.5" y="0.5" width="3" height="3" transform="rotate(90 12.5 0.5)" fill="inherit"/>
<rect x="9.5" y="0.5" width="3" height="3" transform="rotate(90 9.5 0.5)" fill="inherit"/>
<rect x="6.5" y="0.5" width="3" height="3" transform="rotate(90 6.5 0.5)" fill="inherit"/>
<rect x="36.5" y="3.5" width="3" height="3" transform="rotate(90 36.5 3.5)" fill="inherit"/>
<rect x="9.5" y="6.5" width="3" height="3" transform="rotate(90 9.5 6.5)" fill="inherit"/>
<rect x="9.5" y="3.5" width="3" height="3" transform="rotate(90 9.5 3.5)" fill="inherit"/>
<rect x="9.5" y="9.5" width="3" height="3" transform="rotate(90 9.5 9.5)" fill="inherit"/>
<rect x="30.5" y="6.5" width="3" height="3" transform="rotate(90 30.5 6.5)" fill="inherit"/>
<rect x="30.5" y="3.5" width="3" height="3" transform="rotate(90 30.5 3.5)" fill="inherit"/>
<rect x="30.5" y="9.5" width="3" height="3" transform="rotate(90 30.5 9.5)" fill="inherit"/>
<rect x="24.5" y="6.5" width="3" height="3" transform="rotate(90 24.5 6.5)" fill="inherit"/>
<rect x="24.5" y="3.5" width="3" height="3" transform="rotate(90 24.5 3.5)" fill="inherit"/>
<rect x="24.5" y="9.5" width="3" height="3" transform="rotate(90 24.5 9.5)" fill="inherit"/>
<rect x="30.5" y="12.5" width="3" height="3" transform="rotate(90 30.5 12.5)" fill="inherit"/>
<rect x="27.5" y="12.5" width="3" height="3" transform="rotate(90 27.5 12.5)" fill="inherit"/>
<rect x="24.5" y="12.5" width="3" height="3" transform="rotate(90 24.5 12.5)" fill="inherit"/>
<rect x="21.5" y="12.5" width="3" height="3" transform="rotate(90 21.5 12.5)" fill="inherit"/>
<rect x="18.5" y="12.5" width="3" height="3" transform="rotate(90 18.5 12.5)" fill="inherit"/>
<rect x="15.5" y="12.5" width="3" height="3" transform="rotate(90 15.5 12.5)" fill="inherit"/>
<rect x="12.5" y="12.5" width="3" height="3" transform="rotate(90 12.5 12.5)" fill="inherit"/>
<rect x="9.5" y="12.5" width="3" height="3" transform="rotate(90 9.5 12.5)" fill="inherit"/>
<rect x="33.5" y="21.5" width="3" height="3" transform="rotate(90 33.5 21.5)" fill="inherit"/>
<rect x="30.5" y="21.5" width="3" height="3" transform="rotate(90 30.5 21.5)" fill="inherit"/>
<rect x="27.5" y="21.5" width="3" height="3" transform="rotate(90 27.5 21.5)" fill="inherit"/>
<rect x="24.5" y="21.5" width="3" height="3" transform="rotate(90 24.5 21.5)" fill="inherit"/>
<rect x="21.5" y="21.5" width="3" height="3" transform="rotate(90 21.5 21.5)" fill="inherit"/>
<rect x="18.5" y="21.5" width="3" height="3" transform="rotate(90 18.5 21.5)" fill="inherit"/>
<rect x="15.5" y="21.5" width="3" height="3" transform="rotate(90 15.5 21.5)" fill="inherit"/>
<rect x="12.5" y="21.5" width="3" height="3" transform="rotate(90 12.5 21.5)" fill="inherit"/>
<rect x="9.5" y="21.5" width="3" height="3" transform="rotate(90 9.5 21.5)" fill="inherit"/>
<rect x="33.5" y="24.5" width="3" height="3" transform="rotate(90 33.5 24.5)" fill="inherit"/>
<rect x="9.5" y="24.5" width="3" height="3" transform="rotate(90 9.5 24.5)" fill="inherit"/>
<rect x="33.5" y="27.5" width="3" height="3" transform="rotate(90 33.5 27.5)" fill="inherit"/>
<rect x="9.5" y="27.5" width="3" height="3" transform="rotate(90 9.5 27.5)" fill="inherit"/>
<rect x="33.5" y="30.5" width="3" height="3" transform="rotate(90 33.5 30.5)" fill="inherit"/>
<rect x="9.5" y="30.5" width="3" height="3" transform="rotate(90 9.5 30.5)" fill="inherit"/>
<rect x="9.5" y="33.5" width="3" height="3" transform="rotate(90 9.5 33.5)" fill="inherit"/>
<rect x="33.5" y="33.5" width="3" height="3" transform="rotate(90 33.5 33.5)" fill="inherit"/>
<rect x="36.5" y="36.5" width="3" height="3" transform="rotate(90 36.5 36.5)" fill="inherit"/>
<rect x="33.5" y="36.5" width="3" height="3" transform="rotate(90 33.5 36.5)" fill="inherit"/>
<rect x="30.5" y="36.5" width="3" height="3" transform="rotate(90 30.5 36.5)" fill="inherit"/>
<rect x="27.5" y="36.5" width="3" height="3" transform="rotate(90 27.5 36.5)" fill="inherit"/>
<rect x="24.5" y="36.5" width="3" height="3" transform="rotate(90 24.5 36.5)" fill="inherit"/>
<rect x="21.5" y="36.5" width="3" height="3" transform="rotate(90 21.5 36.5)" fill="inherit"/>
<rect x="18.5" y="36.5" width="3" height="3" transform="rotate(90 18.5 36.5)" fill="inherit"/>
<rect x="15.5" y="36.5" width="3" height="3" transform="rotate(90 15.5 36.5)" fill="inherit"/>
<rect x="12.5" y="36.5" width="3" height="3" transform="rotate(90 12.5 36.5)" fill="inherit"/>
<rect x="9.5" y="36.5" width="3" height="3" transform="rotate(90 9.5 36.5)" fill="inherit"/>
<rect x="6.5" y="36.5" width="3" height="3" transform="rotate(90 6.5 36.5)" fill="inherit"/>
<rect x="39.5" y="39.5" width="3" height="3" transform="rotate(-180 39.5 39.5)" fill="inherit"/>
<rect x="39.5" y="36.5" width="3" height="3" transform="rotate(-180 39.5 36.5)" fill="inherit"/>
<rect x="39.5" y="33.5" width="3" height="3" transform="rotate(-180 39.5 33.5)" fill="inherit"/>
<rect x="39.5" y="30.5" width="3" height="3" transform="rotate(-180 39.5 30.5)" fill="inherit"/>
<rect x="39.5" y="27.5" width="3" height="3" transform="rotate(-180 39.5 27.5)" fill="inherit"/>
<rect x="39.5" y="24.5" width="3" height="3" transform="rotate(-180 39.5 24.5)" fill="inherit"/>
<rect x="39.5" y="21.5" width="3" height="3" transform="rotate(-180 39.5 21.5)" fill="inherit"/>
<rect x="39.5" y="18.5" width="3" height="3" transform="rotate(-180 39.5 18.5)" fill="inherit"/>
<rect x="39.5" y="15.5" width="3" height="3" transform="rotate(-180 39.5 15.5)" fill="inherit"/>
<rect x="39.5" y="12.5" width="3" height="3" transform="rotate(-180 39.5 12.5)" fill="inherit"/>
<rect x="39.5" y="9.5" width="3" height="3" transform="rotate(-180 39.5 9.5)" fill="inherit"/>
</symbol>
<symbol id="mini-floppy">
<rect width="1.61538" height="1.61538" fill="inherit"/>
<rect y="1.61523" width="1.61538" height="1.61538" fill="inherit"/>
<rect y="3.23096" width="1.61538" height="1.61538" fill="inherit"/>
<rect y="4.84619" width="1.61538" height="1.61538" fill="inherit"/>
<rect y="6.46143" width="1.61538" height="1.61538" fill="inherit"/>
<rect y="8.07715" width="1.61538" height="1.61538" fill="inherit"/>
<rect y="9.69238" width="1.61538" height="1.61538" fill="inherit"/>
<rect y="11.3076" width="1.61538" height="1.61538" fill="inherit"/>
<rect y="12.9229" width="1.61538" height="1.61538" fill="inherit"/>
<rect y="14.5386" width="1.61538" height="1.61538" fill="inherit"/>
<rect y="16.1538" width="1.61538" height="1.61538" fill="inherit"/>
<rect y="17.769" width="1.61538" height="1.61538" fill="inherit"/>
<rect y="19.3848" width="1.61538" height="1.61538" fill="inherit"/>
<rect x="17.7693" width="1.61538" height="1.61538" transform="rotate(90 17.7693 0)" fill="inherit"/>
<rect x="16.1538" width="1.61538" height="1.61538" transform="rotate(90 16.1538 0)" fill="inherit"/>
<rect x="14.5385" width="1.61538" height="1.61538" transform="rotate(90 14.5385 0)" fill="inherit"/>
<rect x="12.9231" width="1.61538" height="1.61538" transform="rotate(90 12.9231 0)" fill="inherit"/>
<rect x="11.3077" width="1.61538" height="1.61538" transform="rotate(90 11.3077 0)" fill="inherit"/>
<rect x="9.69226" width="1.61538" height="1.61538" transform="rotate(90 9.69226 0)" fill="inherit"/>
<rect x="8.0769" width="1.61538" height="1.61538" transform="rotate(90 8.0769 0)" fill="inherit"/>
<rect x="6.46155" width="1.61538" height="1.61538" transform="rotate(90 6.46155 0)" fill="inherit"/>
<rect x="4.84619" width="1.61538" height="1.61538" transform="rotate(90 4.84619 0)" fill="inherit"/>
<rect x="3.23071" width="1.61538" height="1.61538" transform="rotate(90 3.23071 0)" fill="inherit"/>
<rect x="19.3846" y="1.61523" width="1.61538" height="1.61538" transform="rotate(90 19.3846 1.61523)" fill="inherit"/>
<rect x="4.84619" y="3.23096" width="1.61538" height="1.61538" transform="rotate(90 4.84619 3.23096)" fill="inherit"/>
<rect x="4.84619" y="1.61523" width="1.61538" height="1.61538" transform="rotate(90 4.84619 1.61523)" fill="inherit"/>
<rect x="4.84619" y="4.84619" width="1.61538" height="1.61538" transform="rotate(90 4.84619 4.84619)" fill="inherit"/>
<rect x="16.1538" y="3.23096" width="1.61538" height="1.61538" transform="rotate(90 16.1538 3.23096)" fill="inherit"/>
<rect x="16.1538" y="1.61523" width="1.61538" height="1.61538" transform="rotate(90 16.1538 1.61523)" fill="inherit"/>
<rect x="16.1538" y="4.84619" width="1.61538" height="1.61538" transform="rotate(90 16.1538 4.84619)" fill="inherit"/>
<rect x="12.9231" y="3.23096" width="1.61538" height="1.61538" transform="rotate(90 12.9231 3.23096)" fill="inherit"/>
<rect x="12.9231" y="1.61523" width="1.61538" height="1.61538" transform="rotate(90 12.9231 1.61523)" fill="inherit"/>
<rect x="12.9231" y="4.84619" width="1.61538" height="1.61538" transform="rotate(90 12.9231 4.84619)" fill="inherit"/>
<rect x="16.1538" y="6.46143" width="1.61538" height="1.61538" transform="rotate(90 16.1538 6.46143)" fill="inherit"/>
<rect x="14.5385" y="6.46143" width="1.61538" height="1.61538" transform="rotate(90 14.5385 6.46143)" fill="inherit"/>
<rect x="12.9231" y="6.46143" width="1.61538" height="1.61538" transform="rotate(90 12.9231 6.46143)" fill="inherit"/>
<rect x="11.3077" y="6.46143" width="1.61538" height="1.61538" transform="rotate(90 11.3077 6.46143)" fill="inherit"/>
<rect x="9.69226" y="6.46143" width="1.61538" height="1.61538" transform="rotate(90 9.69226 6.46143)" fill="inherit"/>
<rect x="8.0769" y="6.46143" width="1.61538" height="1.61538" transform="rotate(90 8.0769 6.46143)" fill="inherit"/>
<rect x="6.46155" y="6.46143" width="1.61538" height="1.61538" transform="rotate(90 6.46155 6.46143)" fill="inherit"/>
<rect x="4.84619" y="6.46143" width="1.61538" height="1.61538" transform="rotate(90 4.84619 6.46143)" fill="inherit"/>
<rect x="17.7693" y="11.3076" width="1.61538" height="1.61538" transform="rotate(90 17.7693 11.3076)" fill="inherit"/>
<rect x="16.1538" y="11.3076" width="1.61538" height="1.61538" transform="rotate(90 16.1538 11.3076)" fill="inherit"/>
<rect x="14.5385" y="11.3076" width="1.61538" height="1.61538" transform="rotate(90 14.5385 11.3076)" fill="inherit"/>
<rect x="12.9231" y="11.3076" width="1.61538" height="1.61538" transform="rotate(90 12.9231 11.3076)" fill="inherit"/>
<rect x="11.3077" y="11.3076" width="1.61538" height="1.61538" transform="rotate(90 11.3077 11.3076)" fill="inherit"/>
<rect x="9.69226" y="11.3076" width="1.61538" height="1.61538" transform="rotate(90 9.69226 11.3076)" fill="inherit"/>
<rect x="8.0769" y="11.3076" width="1.61538" height="1.61538" transform="rotate(90 8.0769 11.3076)" fill="inherit"/>
<rect x="6.46155" y="11.3076" width="1.61538" height="1.61538" transform="rotate(90 6.46155 11.3076)" fill="inherit"/>
<rect x="4.84619" y="11.3076" width="1.61538" height="1.61538" transform="rotate(90 4.84619 11.3076)" fill="inherit"/>
<rect x="17.7693" y="12.9229" width="1.61538" height="1.61538" transform="rotate(90 17.7693 12.9229)" fill="inherit"/>
<rect x="4.84619" y="12.9229" width="1.61538" height="1.61538" transform="rotate(90 4.84619 12.9229)" fill="inherit"/>
<rect x="17.7693" y="14.5386" width="1.61538" height="1.61538" transform="rotate(90 17.7693 14.5386)" fill="inherit"/>
<rect x="4.84619" y="14.5386" width="1.61538" height="1.61538" transform="rotate(90 4.84619 14.5386)" fill="inherit"/>
<rect x="17.7693" y="16.1538" width="1.61538" height="1.61538" transform="rotate(90 17.7693 16.1538)" fill="inherit"/>
<rect x="4.84619" y="16.1538" width="1.61538" height="1.61538" transform="rotate(90 4.84619 16.1538)" fill="inherit"/>
<rect x="4.84619" y="17.769" width="1.61538" height="1.61538" transform="rotate(90 4.84619 17.769)" fill="inherit"/>
<rect x="17.7693" y="17.769" width="1.61538" height="1.61538" transform="rotate(90 17.7693 17.769)" fill="inherit"/>
<rect x="19.3846" y="19.3848" width="1.61538" height="1.61538" transform="rotate(90 19.3846 19.3848)" fill="inherit"/>
<rect x="17.7693" y="19.3848" width="1.61538" height="1.61538" transform="rotate(90 17.7693 19.3848)" fill="inherit"/>
<rect x="16.1538" y="19.3848" width="1.61538" height="1.61538" transform="rotate(90 16.1538 19.3848)" fill="inherit"/>
<rect x="14.5385" y="19.3848" width="1.61538" height="1.61538" transform="rotate(90 14.5385 19.3848)" fill="inherit"/>
<rect x="12.9231" y="19.3848" width="1.61538" height="1.61538" transform="rotate(90 12.9231 19.3848)" fill="inherit"/>
<rect x="11.3077" y="19.3848" width="1.61538" height="1.61538" transform="rotate(90 11.3077 19.3848)" fill="inherit"/>
<rect x="9.69226" y="19.3848" width="1.61538" height="1.61538" transform="rotate(90 9.69226 19.3848)" fill="inherit"/>
<rect x="8.0769" y="19.3848" width="1.61538" height="1.61538" transform="rotate(90 8.0769 19.3848)" fill="inherit"/>
<rect x="6.46155" y="19.3848" width="1.61538" height="1.61538" transform="rotate(90 6.46155 19.3848)" fill="inherit"/>
<rect x="4.84619" y="19.3848" width="1.61538" height="1.61538" transform="rotate(90 4.84619 19.3848)" fill="inherit"/>
<rect x="3.23071" y="19.3848" width="1.61538" height="1.61538" transform="rotate(90 3.23071 19.3848)" fill="inherit"/>
<rect x="21" y="21" width="1.61538" height="1.61538" transform="rotate(-180 21 21)" fill="inherit"/>
<rect x="21" y="19.3848" width="1.61538" height="1.61538" transform="rotate(-180 21 19.3848)" fill="inherit"/>
<rect x="21" y="17.769" width="1.61538" height="1.61538" transform="rotate(-180 21 17.769)" fill="inherit"/>
<rect x="21" y="16.1538" width="1.61538" height="1.61538" transform="rotate(-180 21 16.1538)" fill="inherit"/>
<rect x="21" y="14.5386" width="1.61538" height="1.61538" transform="rotate(-180 21 14.5386)" fill="inherit"/>
<rect x="21" y="12.9229" width="1.61538" height="1.61538" transform="rotate(-180 21 12.9229)" fill="inherit"/>
<rect x="21" y="11.3076" width="1.61538" height="1.61538" transform="rotate(-180 21 11.3076)" fill="inherit"/>
<rect x="21" y="9.69238" width="1.61538" height="1.61538" transform="rotate(-180 21 9.69238)" fill="inherit"/>
<rect x="21" y="8.07715" width="1.61538" height="1.61538" transform="rotate(-180 21 8.07715)" fill="inherit"/>
<rect x="21" y="6.46143" width="1.61538" height="1.61538" transform="rotate(-180 21 6.46143)" fill="inherit"/>
<rect x="21" y="4.84619" width="1.61538" height="1.61538" transform="rotate(-180 21 4.84619)" fill="inherit"/>
</symbol>
</svg>
